<?xml version="1.0" encoding="utf-8"?>
<!-- Generator: Adobe Illustrator 19.2.1, SVG Export Plug-In . SVG Version: 6.00 Build 0)  -->
<svg version="1.1" id="Layer_1" xmlns="http://www.w3.org/2000/svg" xmlns:xlink="http://www.w3.org/1999/xlink" x="0px" y="0px"
	 width="342px" height="187.89px" viewBox="0 0 342 187.89" enable-background="new 0 0 342 187.89" xml:space="preserve">
<path fill="#FFFFFF" d="M314.2,96.2c0-37.8-31.9-68.5-71-68.5c-3.6,0-7.3,0.2-10.9,0.8c-30.4,4.3-50.8,26.2-62.2,43
	c-11.4-16.8-31.8-38.7-62.2-43c-3.6-0.5-7.3-0.8-10.9-0.8c-39.2,0-71,30.7-71,68.5s31.9,68.5,71,68.5c3.6,0,7.3-0.2,11-0.8
	c30.4-4.4,50.8-26.3,62.2-43.1c11.4,16.8,31.8,38.7,62.2,43.1c3.6,0.5,7.3,0.8,11,0.8C282.3,164.7,314.2,134,314.2,96.2
	 M104.4,139.9c-2.5,0.4-5,0.5-7.5,0.5c-25.8,0-46.7-19.9-46.7-44.2C50.2,71.8,71.2,52,97,52c2.5,0,5,0.2,7.5,0.5
	c28.7,4.1,46.2,32.4,52.2,43.7C150.6,107.6,133,135.8,104.4,139.9 M183.5,96.2c5.9-11.3,23.5-39.6,52.2-43.7c2.5-0.3,5-0.5,7.5-0.5
	c25.8,0,46.7,19.9,46.7,44.2c0,24.4-21,44.2-46.7,44.2c-2.5,0-5-0.2-7.5-0.5C207,135.8,189.4,107.5,183.5,96.2"/>
<rect x="77.3" y="89.5" fill="#FFFFFF" width="42.7" height="13.7"/>
<polygon fill="#FFFFFF" points="247.9,103.3 262.3,103.3 262.3,89.5 247.9,89.5 247.9,75.1 234.1,75.1 234.1,89.5 219.7,89.5 
	219.7,103.3 234.1,103.3 234.1,117.7 247.9,117.7 "/>
<g>
	<path fill="#FFFFFF" d="M300.7,39.4c0-3.5,2.8-6.4,6.2-6.4c3.5,0,6.3,2.9,6.3,6.4c0,3.7-2.8,6.4-6.3,6.4
		C303.5,45.8,300.7,42.9,300.7,39.4z M312.1,39.4c0-2.9-2.2-5.4-5.2-5.4s-5.1,2.2-5.1,5.4c0,3.3,2.4,5.4,5.1,5.4
		C309.9,44.8,312.1,42.7,312.1,39.4z M303.9,35.4h3.1c2.4,0,3.3,1,3.3,2.7c0,1.1-0.5,1.9-1.5,2.3l1.5,3h-2.2l-1.1-2.7h-1.1v2.7h-2
		L303.9,35.4L303.9,35.4z M306.8,39.3c0.9,0,1.4-0.3,1.4-1.3c0-0.9-0.3-1.2-1.4-1.2h-1v2.6L306.8,39.3L306.8,39.3z"/>
</g>
</svg>
