<?xml version="1.0" encoding="utf-8"?>
<!-- Generator: Adobe Illustrator 19.2.1, SVG Export Plug-In . SVG Version: 6.00 Build 0)  -->
<svg version="1.1" id="Layer_1" xmlns="http://www.w3.org/2000/svg" xmlns:xlink="http://www.w3.org/1999/xlink" x="0px" y="0px"
	 width="111px" height="111px" viewBox="0 0 111 111" enable-background="new 0 0 111 111" xml:space="preserve">
<g id="header_icons">
</g>
<g>
	<circle fill="#FFFFFF" cx="55.371" cy="55.752" r="55.039"/>
	<g>
		<path fill="#CFCFCF" d="M55.371,92.726c-20.388,0-36.975-16.586-36.975-36.974s16.587-36.974,36.975-36.974
			s36.974,16.586,36.974,36.974S75.759,92.726,55.371,92.726z M55.371,19.778c-19.837,0-35.975,16.138-35.975,35.974
			c0,19.836,16.138,35.974,35.975,35.974c19.836,0,35.974-16.138,35.974-35.974C91.345,35.916,75.207,19.778,55.371,19.778z"/>
		<g>
			<g>
				<g>
					<g>
						<path fill="#CFCFCF" d="M83.465,80.808h-1.693c0-12.569-3.053-20.94-17.951-20.94H46.128
							c-14.898,0-17.951,7.884-17.951,19.721h-1.693v-0.374c0.055-10.978,2.573-21.041,19.645-21.041H63.82
							C81.085,58.173,83.465,69.052,83.465,80.808z"/>
					</g>
				</g>
				<path fill="#CFCFCF" d="M55.095,58.687c-7.581,0-13.749-6.479-13.749-14.441s6.168-14.441,13.749-14.441
					s13.748,6.479,13.748,14.441S62.676,58.687,55.095,58.687z M55.095,31.499c-6.647,0-12.056,5.718-12.056,12.747
					s5.408,12.747,12.056,12.747c6.646,0,12.055-5.718,12.055-12.747S61.741,31.499,55.095,31.499z"/>
			</g>
			<g>
				<path fill="#CFCFCF" d="M55.371,93.072c-20.579,0-37.321-16.741-37.321-37.32s16.742-37.321,37.321-37.321
					s37.32,16.742,37.32,37.321S75.95,93.072,55.371,93.072z M55.371,20.125c-19.646,0-35.628,15.982-35.628,35.627
					c0,19.645,15.982,35.627,35.628,35.627c19.645,0,35.627-15.982,35.627-35.627C90.998,36.107,75.016,20.125,55.371,20.125z"/>
			</g>
		</g>
	</g>
</g>
</svg>
