<svg version="1.1" id="Layer_1" xmlns="http://www.w3.org/2000/svg" x="0" y="0" viewBox="0 0 296 209" xml:space="preserve"><path opacity=".2" fill="none" stroke="#E55625" stroke-width=".918" stroke-miterlimit="10" d="M253.526 31.2H296M0 28.966h79.221m142.414 22.239H296m-273.539 0H88.67m124.293 20.879H296m-258.429-.456h49.984m134.08 20.943H296M0 92.116h58.456m163.179 41.231H296m-18.886 20.249h19.217m-35.406 25.342h37.181M0 133.347h79.49m-56.846 20.232H0M0 9.909h296m-74.365 103.783H296m-296-.704h69.025M0 178.714h22.644m15.439-37.38V0M7.205 209V-.287m51.253 134.574V-.235m20.375 141.284V0m20.376 10.65V0m-3.148 209v-13.762m-57.978 12.83v-30.25m101.88-162.664V-1.062m20.375 10.971V0m3.043 209v-7.813m22.439 9.458v-16.596M208.259 209v-7.813m22.678-67.84V-11.904m22.439 136.262V0m22.067 81.989V-2.952"/><path fill="#8D7966" d="M80.782 11.469a2.208 2.208 0 1 0-3.123-3.122 2.208 2.208 0 0 0 3.123 3.122zm81.224 0a2.208 2.208 0 1 0-3.123-3.122 2.208 2.208 0 0 0 3.123 3.122zm101.005 169.03a2.208 2.208 0 1 0-3.123-3.122 2.208 2.208 0 0 0 3.123 3.122z"/><path fill="#E55625" d="M278.317 130.495c-1.583-1.59-4.155-1.59-5.756 0-1.586 1.598-1.586 4.176 0 5.759a4.058 4.058 0 0 0 5.756 0 4.057 4.057 0 0 0 0-5.759zm-2.875 4.921l-2.037-2.04 2.037-2.034 2.04 2.034-2.04 2.04zM61.332 89.234c-1.583-1.59-4.155-1.59-5.756 0-1.587 1.598-1.587 4.176 0 5.759a4.058 4.058 0 0 0 5.756 0 4.058 4.058 0 0 0 0-5.759zm-2.876 4.921l-2.037-2.04 2.037-2.034 2.04 2.034-2.04 2.04z"/><ellipse transform="rotate(-45.033 38.08 112.96)" fill="#7F8C8D" cx="38.081" cy="112.958" rx=".912" ry=".912"/><ellipse transform="rotate(-45.033 78.841 133.375)" fill="#7F8C8D" cx="78.842" cy="133.373" rx=".912" ry=".912"/><ellipse transform="rotate(-45.033 99.21 9.911)" fill="#7F8C8D" cx="99.209" cy="9.91" rx=".912" ry=".912"/><ellipse transform="rotate(-45.033 96.055 195.906)" fill="#7F8C8D" cx="96.057" cy="195.904" rx=".912" ry=".912"/><path fill="#E55625" d="M39.306 70.094a2.036 2.036 0 0 0-2.878 2.881 2.027 2.027 0 0 0 2.878 0c.8-.799.791-2.081 0-2.881zm.216 129.65a2.036 2.036 0 0 0-2.878 2.881 2.027 2.027 0 0 0 2.878 0c.8-.799.791-2.081 0-2.881zm174.88-129.103a2.036 2.036 0 0 0-2.878 2.881 2.027 2.027 0 0 0 2.878 0 2.038 2.038 0 0 0 0-2.881zm62.481 9.906a2.036 2.036 0 0 0-2.878 2.881 2.027 2.027 0 0 0 2.878 0 2.038 2.038 0 0 0 0-2.881zM8.645 131.599a2.036 2.036 0 0 0-2.878 2.881 2.027 2.027 0 0 0 2.878 0 2.04 2.04 0 0 0 0-2.881zm246.171-40.154a2.036 2.036 0 0 0-2.878 2.881 2.027 2.027 0 0 0 2.878 0 2.038 2.038 0 0 0 0-2.881z"/><path fill="#8F9090" d="M253.38 6.281l-3.636 3.617 3.636 3.639 3.629-3.639z"/><path fill="#ECAA20" d="M58.536 26.44a3.526 3.526 0 0 0-3.521 3.521l7.03-.006c.012-1.937-1.562-3.502-3.509-3.515zM22.65 49.252a3.526 3.526 0 0 0-3.521 3.521l7.03-.006c.012-1.938-1.562-3.504-3.509-3.515zm252.799-1.093a3.526 3.526 0 0 0-3.521 3.521l7.03-.006c.013-1.937-1.562-3.502-3.509-3.515z"/><path opacity=".2" fill="none" stroke="#E55625" stroke-width=".918" stroke-miterlimit="10" d="M0 200.865h288.802"/><path fill="#ECAA20" d="M163.387 199.104a3.526 3.526 0 0 0-3.521 3.521l7.03-.006c.012-1.938-1.562-3.503-3.509-3.515z"/><path fill="#077581" d="M21.471 182.009l.003-2.079h-2.088v-1.98h2.088v-2.082h1.97v2.082h2.092v1.98h-2.092l.003 2.079zm208.476-64.978l.003-2.08h-2.088v-1.979h2.088v-2.082h1.971v2.082h2.091v1.979h-2.091l.003 2.08z"/><path fill="#03979C" d="M203.097 44.109c0-13.437-11.337-24.27-25.193-24.27-1.26 0-2.603.084-3.863.252-10.833 1.512-18.055 9.322-22.086 15.284-4.031-5.962-11.253-13.772-22.086-15.284a29.83 29.83 0 0 0-3.863-.252c-13.94 0-25.193 10.917-25.193 24.27 0 13.437 11.337 24.354 25.193 24.354 1.26 0 2.603-.084 3.863-.252 10.833-1.512 18.055-9.322 22.086-15.284 4.031 5.962 11.253 13.772 22.086 15.284a29.83 29.83 0 0 0 3.863.252c13.94-.084 25.193-10.917 25.193-24.354zm-74.404 15.536c-.924.168-1.764.168-2.687.168-9.154 0-16.628-7.054-16.628-15.704s7.474-15.704 16.628-15.704c.84 0 1.764.084 2.687.168 10.161 1.428 16.376 11.505 18.475 15.536-2.099 4.031-8.314 14.024-18.475 15.536zm28.049-15.536c2.099-4.031 8.314-14.024 18.475-15.536.924-.084 1.764-.168 2.687-.168 9.154 0 16.628 7.054 16.628 15.704s-7.474 15.704-16.544 15.704c-.84 0-1.764-.084-2.687-.168-10.246-1.512-16.46-11.505-18.559-15.536z"/><path fill="#03979C" d="M119.035 41.758h15.116v4.871h-15.116zm60.549 4.87h5.122v-4.87h-5.122v-5.123h-4.871v5.123h-5.123v4.87h5.123v5.123h4.871zM107.95 75.685l-4.367 14.024h3.527l.756-2.855h4.031l.756 2.855h3.695l-4.451-14.108h-3.947v.084zm.588 8.482l1.26-5.123 1.428 5.123h-2.688zm21.079-3.779c0-2.687-1.428-4.703-5.375-4.703h-5.711v14.108h3.527v-4.451h1.764l2.099 4.451h4.115l-2.771-5.123c1.596-.923 2.352-2.435 2.352-4.282zm-5.711 2.099h-1.848V78.54h1.764c1.596 0 2.099.672 2.099 1.848.001 1.511-.755 2.099-2.015 2.099zm13.185-6.802h-4.619v14.108h4.619c5.962 0 6.97-3.863 6.97-7.138 0-4.535-1.764-6.97-6.97-6.97zm.168 11.169h-1.344V78.54h1.008c3.107 0 3.359 1.512 3.359 4.199.084 2.351-.168 4.115-3.023 4.115zm17.131-2.603c0 2.183-.588 2.855-2.183 2.855-1.344 0-2.183-.504-2.183-2.855v-8.566h-3.527v9.238c0 4.283 3.107 5.039 5.459 5.039 2.519 0 5.627-.924 5.627-5.039v-9.238h-3.359v8.566h.166zm6.466-5.711h3.612v8.314h-3.612v2.855h10.834v-2.855h-3.695V78.54h3.695v-2.855h-10.834zm22.003 5.543l-4.535-8.398h-3.779v14.024h3.275v-8.985l4.787 8.985h3.527V75.685h-3.275zm11.505-8.65c-4.283 0-5.878 3.107-5.878 7.39 0 4.703 1.848 7.138 5.878 7.138 4.535 0 6.046-3.191 6.046-7.306 0-5.375-2.099-7.222-6.046-7.222zm0 11.673c-2.015 0-2.183-1.428-2.183-4.283 0-3.443.336-4.535 2.183-4.535 2.015 0 2.351.924 2.351 4.367 0 3.275-.336 4.451-2.351 4.451zm10.581-66.343c-.168-.42-.42-.84-.756-1.092-.336-.336-.672-.588-1.092-.756s-.924-.252-1.344-.252c-.504 0-.924.084-1.344.252-.42.168-.756.42-1.092.756s-.588.672-.756 1.092c-.168.42-.252.924-.252 1.428s.084.924.252 1.428c.168.42.42.84.756 1.176s.672.588 1.092.756c.42.168.924.252 1.344.252.504 0 .924-.084 1.344-.252.42-.168.756-.42 1.092-.756s.588-.672.756-1.176c.168-.42.252-.924.252-1.428s-.084-1.008-.252-1.428zm-.756 2.52c-.168.336-.336.588-.588.84s-.504.42-.84.588-.672.252-1.008.252-.756-.084-1.008-.252a3.017 3.017 0 0 1-.84-.588c-.252-.252-.42-.504-.588-.84s-.252-.672-.252-1.092.084-.756.252-1.092.336-.672.588-.924c.252-.252.504-.42.84-.588s.672-.252 1.008-.252.672.084 1.008.252.588.336.84.588c.252.252.42.504.588.924.168.336.252.672.252 1.092-.084.336-.168.756-.252 1.092z"/><path fill="#03979C" d="M202.426 22.527c.168-.084.336-.252.42-.42s.168-.336.168-.588c0-.336-.084-.588-.336-.84s-.672-.336-1.176-.336h-1.092v3.527h.924v-1.176h.336l.588 1.176h1.008l-.84-1.343zm-.84-.504h-.252v-.924h.252c.42 0 .588.168.588.504 0 .252-.168.42-.588.42zm-69.198 92.292c0-2.267-1.008-3.107-3.443-3.107h-2.939v6.046h3.107c1.847.084 3.275-.672 3.275-2.939zm23.598 4.955h5.122l-2.603-7.642z"/><path fill="#03979C" d="M103.583 101.466v31.576h96.659v-31.576h-96.659zm12.261 23.598c-4.199 0-7.054-2.267-7.054-7.81 0-5.123 2.939-7.978 7.222-7.978 1.512 0 3.107.336 4.031.924l-.672 1.764c-.84-.672-2.267-1.008-3.443-1.008-3.443 0-5.207 2.267-5.207 6.214 0 4.115 1.68 6.214 5.207 6.214 1.512 0 3.107-.42 3.863-.924l.504 1.596c-1.176.756-2.771 1.008-4.451 1.008zm17.048-.168l-3.275-5.962h-3.611v5.962h-1.848v-15.284h4.955c3.863 0 5.291 1.596 5.291 4.703 0 2.099-1.092 3.611-2.855 4.283l3.611 6.298h-2.268zm16.375-13.688h-8.482v4.955h7.642v1.596h-7.642v5.375h8.482v1.68h-10.329V109.53h10.329v1.678zm13.689 13.688l-1.344-4.031h-6.13l-1.344 4.031h-1.931l5.291-15.284h2.015l5.375 15.284h-1.932zm16.544-13.688h-5.291v13.604h-1.932v-13.604h-5.291v-1.68h12.429v1.68h.085zm13.772 0h-8.482v4.955h7.642v1.596h-7.642v5.375h8.482v1.68h-10.329V109.53h10.329v1.678z"/><path fill="#8F9090" d="M288.806 197.559l-3.636 3.617 3.636 3.639 3.628-3.639z"/></svg>