<svg version="1.1" id="Livello_1" xmlns="http://www.w3.org/2000/svg" x="0" y="0" width="296" height="209" xml:space="preserve"><style>.st0{fill:#8ecdd0}.st2{fill:none;stroke:#fff;stroke-miterlimit:10;stroke-width:.3723}.st4{fill:#edaa00}.st5{fill:#fff}.st6{fill:#e75300}.st7{fill:#007481}.st8{fill:#8c7965}</style><path class="st0" d="M0 0h296v209H0z"/><path d="M41 209v-38.8M60.3 209v-38.8M79.8 209v-38.8M99.3 209v-38.8m19.5 38.8v-38.8m19.4 38.8v-38.8m19.5 38.8v-38.8M177 209v-38.8m19.2 38.8v-38.8m19.7 38.8v-38.8m19.5 38.8v-38.8m19.4 38.8v-38.8" fill="none" stroke="#fff" stroke-width=".355" stroke-miterlimit="10"/><path class="st2" d="M50.6 162.7v20m19.5-20v19.9m-38.8-19.9v19.9m58.3-19.9v20m19.4-20v19.9m19.5-19.9v20m19.4-20v20m19.5-20v19.9m19.5-19.9v20m19.4-20v20m19.5-20v20m19.5-20v19.9m19.4-19.9v20"/><path d="M24.3 143.3H0m24.3-19.4H0m24.3-19.4H0m24.3-19.4H0m24.3-19.4H0m24.3-19.5H0m296 97.1h-24.3m24.3-19.4h-24.3m24.3-19.4h-24.3M296 85.1h-24.3M296 65.7h-24.3M296 46.2h-24.3" stroke-width=".196" fill="none" stroke="#fff" stroke-miterlimit="10"/><path class="st2" d="M50.6 0v26.8M70.1 0v26.8M31.3 0v26.8M89.6 0v26.8M109 0v26.8M128.5 0v26.8M147.9 0v26.8M167.4 0v26.8M186.9 0v26.8M206.3 0v26.8M225.8 0v26.9M245.3 0v26.8M264.7 0v26.8"/><path class="st4" d="M45.8 187.6h9.7V209h-9.7z"/><path class="st5" d="M50 182.5c-.4.4-.3.9 0 1.3.3.3.9.3 1.3 0 .3-.3.3-.9 0-1.3-.4-.3-1-.3-1.3 0z"/><path class="st6" d="M55.5 197.3v-9.7h-9.7v9.7h9.7z"/><path class="st5" d="M50.6 195.9l3.5-3.4-3.4-3.5h-.1l-3.4 3.5z"/><g id="INSERT_24_"><path class="st7" d="M49.5 192.5c0 .6.5 1.2 1.2 1.2.6 0 1.2-.5 1.2-1.2 0-.6-.5-1.2-1.2-1.2s-1.2.5-1.2 1.2z" id="CIRCLE_24_"/></g><path class="st4" d="M26.4 187.6h9.7V209h-9.7z"/><path class="st5" d="M31.7 181.8v.9h.9v.9h-.9v.9h-.9v-.9h-.9v-.9h.9v-.9z"/><path class="st8" d="M36.1 197.3v-9.7h-9.7v9.7h9.7z"/><g id="INSERT_23_"><path class="st5" d="M32 191.7c.5.5 1.2.5 1.6 0 .5-.5.5-1.2 0-1.6-.5-.5-1.2-.5-1.6 0-.4.4-.4 1.1 0 1.6z" id="CIRCLE_23_"/></g><g id="INSERT_22_"><path class="st5" d="M28.9 194.9c.5.5 1.2.5 1.6 0 .5-.5.5-1.2 0-1.6-.5-.5-1.2-.5-1.6 0-.5.4-.5 1.1 0 1.6z" id="CIRCLE_22_"/></g><g id="INSERT_21_"><path class="st5" d="M30.5 191.7c.5-.5.5-1.2 0-1.6-.5-.5-1.2-.5-1.6 0-.5.5-.5 1.2 0 1.6.4.5 1.2.5 1.6 0z" id="CIRCLE_21_"/></g><g id="INSERT_16_"><path class="st5" d="M33.7 194.9c.5-.5.5-1.2 0-1.6-.5-.5-1.2-.5-1.6 0-.5.5-.5 1.2 0 1.6.4.4 1.1.4 1.6 0z" id="CIRCLE_16_"/></g><path class="st4" d="M65.1 187.6h9.7V209h-9.7z"/><path class="st5" d="M70 181.6l1.6 1.6-1.6 1.6-1.6-1.6"/><path class="st6" d="M74.8 197.3v-9.7h-9.7v9.7h9.7z"/><path class="st8" d="M70 195.9l3.4-3.4L70 189l-3.4 3.5z"/><path class="st4" d="M143.1 187.6h9.7V209h-9.7z"/><path class="st5" d="M147.9 181.6l1.6 1.6-1.6 1.6-1.5-1.6"/><path class="st6" d="M152.8 197.3v-9.7h-9.7v9.7h9.7z"/><path class="st8" d="M148 195.9l3.4-3.4-3.4-3.5-3.5 3.5z"/><path class="st4" d="M84.7 187.6h9.7V209h-9.7z"/><path class="st5" d="M91.1 183.9c0-.9-.7-1.5-1.5-1.5-.9 0-1.5.7-1.5 1.5"/><path class="st7" d="M94.4 197.3v-9.7h-9.7v9.7h9.7z"/><g id="INSERT_15_"><path class="st5" d="M90.3 191.7c.5.5 1.2.5 1.6 0 .5-.5.5-1.2 0-1.6-.5-.5-1.2-.5-1.6 0-.4.4-.4 1.1 0 1.6z" id="CIRCLE_15_"/></g><g id="INSERT_14_"><path class="st5" d="M87.1 194.9c.5.5 1.2.5 1.6 0 .5-.5.5-1.2 0-1.6-.5-.5-1.2-.5-1.6 0-.4.4-.4 1.1 0 1.6z" id="CIRCLE_14_"/></g><g id="INSERT_13_"><path class="st5" d="M88.8 191.7c.5-.5.5-1.2 0-1.6-.5-.5-1.2-.5-1.6 0-.5.5-.5 1.2 0 1.6.4.5 1.1.5 1.6 0z" id="CIRCLE_13_"/></g><g id="INSERT_12_"><path class="st5" d="M92 194.9c.5-.5.5-1.2 0-1.6-.5-.5-1.2-.5-1.6 0-.5.5-.5 1.2 0 1.6.4.4 1.1.4 1.6 0z" id="CIRCLE_12_"/></g><path class="st4" d="M104.2 187.6h9.7V209h-9.7z"/><path class="st5" d="M109.5 181.8v.9h.9v.9h-.9v.9h-.9v-.9h-.9v-.9h.9v-.9z"/><path class="st6" d="M113.9 197.3v-9.7h-9.7v9.7h9.7z"/><path class="st5" d="M109 195.9l3.5-3.4-3.5-3.5-3.4 3.5z"/><g id="INSERT_11_"><path class="st7" d="M107.9 192.5c0 .6.5 1.2 1.2 1.2s1.2-.5 1.2-1.2c0-.6-.5-1.2-1.2-1.2s-1.2.5-1.2 1.2z" id="CIRCLE_11_"/></g><path class="st4" d="M123.6 187.6h9.7V209h-9.7z"/><path class="st5" d="M127.8 182.5c-.4.4-.3.9 0 1.3.3.3.9.3 1.3 0 .3-.3.3-.9 0-1.3-.3-.3-.9-.3-1.3 0z"/><g id="XMLID_3_"><path class="st7" d="M133.3 197.3v-9.7h-9.7v9.7h9.7z"/><path class="st4" d="M126.1 194.9h4.8V190h-4.8z"/></g><path class="st4" d="M181.9 187.6h9.7V209h-9.7z"/><path class="st5" d="M186.1 182.5c-.4.4-.3.9 0 1.3.3.3.9.3 1.3 0 .3-.3.3-.9 0-1.3-.4-.3-1-.3-1.3 0z"/><path class="st6" d="M191.6 197.3v-9.7h-9.7v9.7h9.7z"/><path class="st5" d="M186.7 195.9l3.5-3.4h-.1l-3.4-3.5-3.4 3.5z"/><g id="INSERT_10_"><path class="st7" d="M185.5 192.5c0 .6.5 1.2 1.2 1.2.6 0 1.2-.5 1.2-1.2 0-.6-.5-1.2-1.2-1.2-.6 0-1.2.5-1.2 1.2z" id="CIRCLE_10_"/></g><path class="st4" d="M162.5 187.6h9.7V209h-9.7z"/><path class="st5" d="M167.8 181.8v.9h.9v.9h-.9v.9h-.9v-.9h-.9v-.9h.9v-.9z"/><path class="st8" d="M172.2 197.3v-9.7h-9.7v9.7h9.7z"/><g id="INSERT_9_"><path class="st5" d="M168.1 191.7c.5.5 1.2.5 1.6 0s.5-1.2 0-1.6c-.5-.5-1.2-.5-1.6 0-.4.4-.4 1.1 0 1.6z" id="CIRCLE_9_"/></g><g id="INSERT_8_"><path class="st5" d="M164.9 194.9c.5.5 1.2.5 1.6 0 .5-.5.5-1.2 0-1.6-.5-.5-1.2-.5-1.6 0-.4.4-.4 1.1 0 1.6z" id="CIRCLE_8_"/></g><g id="INSERT_7_"><path class="st5" d="M166.6 191.7c.5-.5.5-1.2 0-1.6-.5-.5-1.2-.5-1.6 0-.5.5-.5 1.2 0 1.6.4.5 1.1.5 1.6 0z" id="CIRCLE_7_"/></g><g id="INSERT_6_"><path class="st5" d="M169.8 194.9c.5-.5.5-1.2 0-1.6-.5-.5-1.2-.5-1.6 0-.5.5-.5 1.2 0 1.6.4.4 1.1.4 1.6 0z" id="CIRCLE_6_"/></g><path class="st4" d="M201.2 187.6h9.7V209h-9.7z"/><path class="st5" d="M206.1 181.6l1.6 1.6-1.6 1.6-1.6-1.6"/><path class="st6" d="M210.9 197.3v-9.7h-9.7v9.7h9.7z"/><path class="st8" d="M206.1 195.9l3.4-3.4-3.4-3.5-3.5 3.5z"/><path class="st4" d="M220.8 187.6h9.7V209h-9.7z"/><path class="st5" d="M227.2 183.9c0-.9-.7-1.5-1.5-1.5-.9 0-1.5.7-1.5 1.5"/><path class="st7" d="M230.5 197.3v-9.7h-9.7v9.7h9.7z"/><g id="INSERT_5_"><path class="st5" d="M226.4 191.7c.5.5 1.2.5 1.6 0 .5-.5.5-1.2 0-1.6-.5-.5-1.2-.5-1.6 0-.5.4-.5 1.1 0 1.6z" id="CIRCLE_5_"/></g><g id="INSERT_4_"><path class="st5" d="M223.2 194.9c.5.5 1.2.5 1.6 0 .5-.5.5-1.2 0-1.6-.5-.5-1.2-.5-1.6 0-.4.4-.4 1.1 0 1.6z" id="CIRCLE_4_"/></g><g id="INSERT_3_"><path class="st5" d="M224.9 191.7c.5-.5.5-1.2 0-1.6-.5-.5-1.2-.5-1.6 0-.5.5-.5 1.2 0 1.6.4.5 1.1.5 1.6 0z" id="CIRCLE_3_"/></g><g id="INSERT_2_"><path class="st5" d="M228 194.9c.5-.5.5-1.2 0-1.6-.5-.5-1.2-.5-1.6 0-.5.5-.5 1.2 0 1.6s1.2.4 1.6 0z" id="CIRCLE_2_"/></g><path class="st4" d="M240.2 187.6h9.7V209h-9.7z"/><path class="st5" d="M245.5 181.8v.9h.9v.9h-.9v.9h-.8v-.9h-.9v-.9h.9v-.9z"/><path class="st6" d="M250 197.3v-9.7h-9.7v9.7h9.7z"/><path class="st5" d="M245.1 195.9l3.4-3.4-3.4-3.5-3.4 3.5z"/><g id="INSERT_1_"><path class="st7" d="M243.9 192.5c0 .6.5 1.2 1.2 1.2s1.2-.5 1.2-1.2c0-.6-.5-1.2-1.2-1.2s-1.2.5-1.2 1.2z" id="CIRCLE_1_"/></g><path class="st4" d="M259.7 187.6h9.7V209h-9.7z"/><path class="st5" d="M263.9 182.5c-.4.4-.3.9 0 1.3.3.3.9.3 1.3 0 .3-.3.3-.9 0-1.3-.4-.3-.9-.3-1.3 0z"/><g id="XMLID_1_"><path class="st7" d="M269.4 197.3v-9.7h-9.7v9.7h9.7z"/><path class="st4" d="M262.1 194.9h4.9V190h-4.9z"/></g><path class="st5" d="M109.9 57.9c0-7.7-6.5-14-14.5-14-.7 0-1.5.1-2.2.2-6.2.9-10.3 5.4-12.7 8.8-2.3-3.4-6.5-7.9-12.7-8.8-.7-.1-1.5-.2-2.2-.2-8 0-14.5 6.3-14.5 14s6.5 14 14.5 14c.7 0 1.5-.1 2.2-.2 6.2-.9 10.4-5.4 12.7-8.8 2.3 3.4 6.5 7.9 12.7 8.8.7.1 1.5.2 2.2.2 8 0 14.5-6.3 14.5-14zm-42.8 8.9c-.5.1-1 .1-1.5.1-5.3 0-9.5-4.1-9.5-9 0-5 4.3-9 9.5-9 .5 0 1 0 1.5.1 5.9.8 9.4 6.6 10.6 8.9-1.1 2.3-4.7 8.1-10.6 8.9zm16.2-8.9c1.2-2.3 4.8-8.1 10.6-8.9.5-.1 1-.1 1.5-.1 5.3 0 9.5 4 9.5 9s-4.3 9-9.5 9c-.5 0-1 0-1.5-.1-5.8-.8-9.4-6.6-10.6-8.9z"/><path class="st5" d="M61.6 56.6h8.7v2.8h-8.7zm34.8 2.8h3v-2.8h-3v-3h-2.8v3h-2.9v2.8h2.9v2.9h2.8zM111 44.5c-.1-.3-.3-.5-.4-.7-.2-.2-.4-.3-.6-.4-.2-.1-.5-.2-.8-.2s-.6.1-.8.2c-.2.1-.5.3-.6.4-.2.2-.3.4-.4.7-.1.2-.2.5-.2.8s.1.6.2.8c.1.3.3.5.4.7s.4.3.6.4c.2.1.5.2.8.2s.5-.1.8-.2c.2-.1.5-.2.6-.4.2-.2.3-.4.4-.7s.2-.5.2-.8c-.1-.3-.1-.6-.2-.8zm-.5 1.4c-.1.2-.2.4-.3.5-.1.1-.3.3-.5.3-.2.1-.4.1-.6.1s-.4 0-.6-.1-.3-.2-.5-.3c-.1-.1-.2-.3-.3-.5-.1-.2-.1-.4-.1-.6 0-.2 0-.4.1-.6.1-.2.2-.4.3-.5.1-.1.3-.3.5-.3.2-.1.4-.1.6-.1s.4 0 .6.1.3.2.5.3c.1.1.3.3.3.5.1.2.1.4.1.6.1.2 0 .4-.1.6z"/><path class="st5" d="M109.5 45.5c.1-.1.2-.1.3-.2.1-.1.1-.2.1-.3 0-.2-.1-.4-.2-.5s-.4-.2-.7-.2h-.6v2h.5v-.7h.2l.4.7h.6l-.6-.8zm-.5-.3h-.2v-.5h.2c.2 0 .3.1.3.3s0 .2-.3.2zm8.3.6h127.6v24.5H117.3z"/><path class="st0" d="M133.6 51v1.5h-7.8v4.6h7v1.5h-7v4.9h7.8V65h-9.5V51h9.5zm3 0h4.7c4.9 0 6.4 3.3 6.4 6.9 0 3.8-1.2 7.1-6.5 7.1h-4.6V51zm1.8 1.5v11h3c3.9 0 4.4-2.5 4.4-5.5 0-2.8-.8-5.5-4.5-5.5h-2.9zm19.7-1.5h1.7v8.8c0 3.2-1.2 5.5-5.2 5.5-3.9 0-5.1-1.9-5.1-5.3v-9h1.7v8.8c0 3 1 4 3.4 4 2.6 0 3.4-1.2 3.4-4.2l.1-8.6zm14.8 13.4c-1.1.6-2.6.9-4.1.9-3.9 0-6.5-2.1-6.5-7.1 0-4.7 2.7-7.3 6.7-7.3 1.4 0 2.9.3 3.7.8l-.6 1.6c-.8-.6-2.1-1-3.2-1-3.2 0-4.8 2.1-4.8 5.7 0 3.8 1.6 5.7 4.7 5.7 1.4 0 2.8-.4 3.5-.8l.6 1.5zm1.8.7l4.9-14h1.9l4.9 14h-1.8l-1.3-3.7h-5.6l-1.2 3.7h-1.8zm5.8-12.2l-2.3 7h4.7l-2.4-7zm18.7-.4h-4.8V65h-1.7V52.5h-4.9V51h11.4v1.5zm2.5 11h3.9v-11h-3.9V51h9.7v1.5h-4v11h4V65h-9.7v-1.5zm23.5-5.4c0 4.2-2 7.2-5.9 7.2-4.1 0-5.8-2.8-5.8-7.2 0-4.3 1.9-7.3 5.9-7.3 4.1 0 5.8 2.6 5.8 7.3zm-1.8 0c0-3.7-.9-5.7-4-5.7s-4 1.9-4 5.7c0 3.6.8 5.7 3.9 5.7 3.1 0 4.1-2.3 4.1-5.7zm5.4 7h-1.7V51h1.9l6.8 11.2V51h1.6v14h-1.8l-6.9-11.5.1 11.6z"/></svg>