<svg version="1.1" id="Livello_1" xmlns="http://www.w3.org/2000/svg" x="0" y="0" width="296" height="209" xml:space="preserve"><path fill="none" stroke="#8E9090" stroke-width=".355" stroke-miterlimit="10" d="M40.956 209v-38.829M60.308 209v-38.829M79.661 209v-38.829M99.013 209v-38.829M118.365 209v-38.829M137.718 209v-38.829M157.07 209v-38.829M176.422 209v-38.829M195.775 209v-38.829M215.127 209v-38.829M234.479 209v-38.829M253.832 209v-38.829"/><g fill="none" stroke-miterlimit="10"><path d="M50.632 162.666v20.014m19.463-20.014v19.912M31.28 162.666v19.912m58.277-19.912v20.042m19.463-20.042v19.912m19.462-19.912v20.031m19.463-20.031v20.036m19.462-20.036v19.912m19.463-19.912v20.047m19.463-20.047v19.996m19.462-19.996v20.053m19.463-20.053v19.912m19.462-19.912v20.02" stroke="#8C7965" stroke-width=".372"/><path d="M24.333 143.345H0m24.333-19.423H0M24.333 104.5H0m24.333-19.423H0m24.333-19.422H0m24.333-19.423H0m296 97.113h-24.333M296 123.922h-24.333M296 104.5h-24.333M296 85.077h-24.333M296 65.655h-24.333M296 46.232h-24.333" stroke="#E75300" stroke-width=".196"/><path d="M50.632 0v26.828M70.095 0v26.769M31.28 0v26.769M89.557 0v26.844M109.02 0v26.769M128.482 0v26.837M147.945 0v26.84M167.407 0v26.769M186.87 0v26.847M206.333 0v26.818M225.795 0v26.85M245.258 0v26.769M264.72 0v26.831" stroke="#8C7965" stroke-width=".372"/></g><path fill="#EDAA00" d="M45.777 187.647h9.71V209h-9.71z"/><path fill="#E75300" d="M50.001 182.538a.894.894 0 0 0 1.261 1.263.893.893 0 0 0-1.261-1.263zm5.483 14.778v-9.707H45.78v9.707h9.704z"/><path fill="#FFF" d="M50.647 195.903l3.432-3.432-.006-.005-3.423-3.426-.011-.009-3.43 3.432.007.008v.003z"/><g id="INSERT_70_"><path fill="#007481" d="M49.468 192.463c0 .646.52 1.164 1.164 1.164a1.164 1.164 0 1 0-1.164-1.164z" id="CIRCLE_70_"/></g><path fill="#EDAA00" d="M26.425 187.647h9.71V209h-9.71z"/><path fill="#007481" d="M31.713 181.821l-.001.912h.916v.868h-.916v.912h-.863v-.912h-.918v-.868h.918l-.002-.912z"/><path fill="#8C7965" d="M36.132 197.316v-9.707h-9.704v9.707h9.704z"/><g id="INSERT_20_"><path fill="#FFF" d="M32.043 191.698a1.164 1.164 0 1 0 1.647-1.646 1.164 1.164 0 0 0-1.647 1.646z" id="CIRCLE_20_"/></g><g id="INSERT_19_"><path fill="#FFF" d="M28.869 194.872a1.158 1.158 0 0 0 1.645 0 1.16 1.16 0 0 0 0-1.645 1.163 1.163 0 1 0-1.645 1.645z" id="CIRCLE_19_"/></g><g id="INSERT_18_"><path fill="#FFF" d="M30.513 191.698a1.164 1.164 0 1 0-1.646-1.646 1.164 1.164 0 0 0 1.646 1.646z" id="CIRCLE_18_"/></g><g id="INSERT_17_"><path fill="#FFF" d="M33.69 194.872a1.16 1.16 0 0 0 0-1.645 1.165 1.165 0 0 0-1.647 0 1.165 1.165 0 0 0 0 1.645 1.16 1.16 0 0 0 1.647 0z" id="CIRCLE_17_"/></g><path fill="#EDAA00" d="M65.129 187.647h9.709V209h-9.709z"/><path fill="#8E9090" d="M69.981 181.578l1.594 1.593-1.594 1.586-1.589-1.586"/><path fill="#E75300" d="M74.838 197.316v-9.707h-9.707v9.707h9.707z"/><path fill="#8C7965" d="M70 195.903l3.432-3.432-.004-.005-3.426-3.426-.009-.009-3.432 3.432.01.008-.002.003z"/><path fill="#EDAA00" d="M143.091 187.647h9.709V209h-9.709z"/><path fill="#8E9090" d="M147.943 181.578l1.594 1.593-1.594 1.586-1.59-1.586"/><path fill="#E75300" d="M152.799 197.316v-9.707h-9.707v9.707h9.707z"/><path fill="#8C7965" d="M147.961 195.903l3.433-3.432-.004-.005-3.427-3.426-.009-.009-3.432 3.432.01.008-.001.003z"/><path fill="#EDAA00" d="M84.703 187.647h9.709V209h-9.709z"/><path fill="#8C7965" d="M91.098 183.938a1.536 1.536 0 0 0-1.537-1.54 1.545 1.545 0 0 0-1.544 1.543"/><path fill="#007481" d="M94.411 197.316v-9.707h-9.707v9.707h9.707z"/><g id="INSERT_74_"><path fill="#FFF" d="M90.322 191.698c.456.455 1.19.455 1.645 0a1.161 1.161 0 0 0 0-1.646 1.163 1.163 0 1 0-1.645 1.646z" id="CIRCLE_74_"/></g><g id="INSERT_73_"><path fill="#FFF" d="M87.146 194.872a1.158 1.158 0 0 0 1.645 0 1.157 1.157 0 0 0 0-1.645 1.163 1.163 0 1 0-1.645 1.645z" id="CIRCLE_73_"/></g><g id="INSERT_72_"><path fill="#FFF" d="M88.791 191.698a1.163 1.163 0 1 0-1.645-1.648 1.163 1.163 0 0 0 1.645 1.648z" id="CIRCLE_72_"/></g><g id="INSERT_71_"><path fill="#FFF" d="M91.967 194.872a1.163 1.163 0 1 0-1.645 0 1.158 1.158 0 0 0 1.645 0z" id="CIRCLE_71_"/></g><path fill="#EDAA00" d="M104.165 187.647h9.709V209h-9.709z"/><path fill="#007481" d="M109.454 181.821l-.001.912h.915v.868h-.915v.912h-.864v-.912h-.916v-.868h.916l-.001-.912z"/><path fill="#E75300" d="M113.874 197.314v-9.707h-9.707v9.707h9.707z"/><path fill="#FFF" d="M109.037 195.903l3.43-3.432-.005-.008-3.424-3.423-.009-.012-3.432 3.432.008.011z"/><g id="INSERT_75_"><path fill="#007481" d="M107.856 192.46c0 .646.521 1.164 1.164 1.164a1.164 1.164 0 1 0-1.164-1.164z" id="CIRCLE_75_"/></g><path fill="#EDAA00" d="M123.627 187.647h9.71V209h-9.71z"/><path fill="#E75300" d="M127.85 182.538a.892.892 0 1 0 1.261 0 .887.887 0 0 0-1.261 0z"/><g id="XMLID_4_"><path fill="#007481" d="M133.334 197.316v-9.707h-9.707v9.707h9.707z"/><path fill="#EDAA00" d="M126.066 194.899h4.854v-4.864h-4.854v.013z"/></g><path fill="#EDAA00" d="M181.854 187.647h9.71V209h-9.71z"/><path fill="#E75300" d="M186.078 182.538a.894.894 0 0 0 1.261 1.263.893.893 0 0 0-1.261-1.263zm5.483 14.778v-9.707h-9.704v9.707h9.704z"/><path fill="#FFF" d="M186.724 195.903l3.431-3.432-.005-.005-3.423-3.426-.012-.009-3.43 3.432.007.008v.003z"/><g id="INSERT_37_"><path fill="#007481" d="M185.544 192.463c0 .646.52 1.164 1.164 1.164a1.164 1.164 0 1 0-1.164-1.164z" id="CIRCLE_37_"/></g><path fill="#EDAA00" d="M162.501 187.647h9.71V209h-9.71z"/><path fill="#007481" d="M167.79 181.821l-.001.912h.916v.868h-.916v.912h-.864v-.912h-.917v-.868h.917l-.001-.912z"/><path fill="#8C7965" d="M172.208 197.316v-9.707h-9.704v9.707h9.704z"/><g id="INSERT_36_"><path fill="#FFF" d="M168.12 191.698a1.164 1.164 0 1 0 1.647-1.646 1.164 1.164 0 0 0-1.647 1.646z" id="CIRCLE_36_"/></g><g id="INSERT_35_"><path fill="#FFF" d="M164.946 194.872a1.158 1.158 0 0 0 1.645 0 1.16 1.16 0 0 0 0-1.645 1.16 1.16 0 0 0-1.645 0 1.16 1.16 0 0 0 0 1.645z" id="CIRCLE_35_"/></g><g id="INSERT_34_"><path fill="#FFF" d="M166.59 191.698a1.164 1.164 0 1 0-1.646-1.646 1.164 1.164 0 0 0 1.646 1.646z" id="CIRCLE_34_"/></g><g id="INSERT_33_"><path fill="#FFF" d="M169.766 194.872a1.16 1.16 0 0 0 0-1.645 1.165 1.165 0 0 0-1.647 0 1.165 1.165 0 0 0 0 1.645 1.16 1.16 0 0 0 1.647 0z" id="CIRCLE_33_"/></g><path fill="#EDAA00" d="M201.206 187.647h9.709V209h-9.709z"/><path fill="#8E9090" d="M206.058 181.578l1.594 1.593-1.594 1.586-1.59-1.586"/><path fill="#E75300" d="M210.914 197.316v-9.707h-9.707v9.707h9.707z"/><path fill="#8C7965" d="M206.076 195.903l3.433-3.432-.004-.005-3.426-3.426-.01-.009-3.432 3.432.01.008-.001.003z"/><path fill="#EDAA00" d="M220.779 187.647h9.709V209h-9.709z"/><path fill="#8C7965" d="M227.174 183.938a1.536 1.536 0 0 0-1.537-1.54 1.545 1.545 0 0 0-1.544 1.543"/><path fill="#007481" d="M230.488 197.316v-9.707h-9.707v9.707h9.707z"/><g id="INSERT_32_"><path fill="#FFF" d="M226.398 191.698c.456.455 1.19.455 1.645 0a1.161 1.161 0 0 0 0-1.646 1.164 1.164 0 0 0-1.645 1.646z" id="CIRCLE_32_"/></g><g id="INSERT_31_"><path fill="#FFF" d="M223.223 194.872a1.158 1.158 0 0 0 1.645 0 1.157 1.157 0 0 0 0-1.645 1.163 1.163 0 1 0-1.645 1.645z" id="CIRCLE_31_"/></g><g id="INSERT_30_"><path fill="#FFF" d="M224.868 191.698a1.163 1.163 0 1 0-1.645-1.648 1.163 1.163 0 0 0 1.645 1.648z" id="CIRCLE_30_"/></g><g id="INSERT_29_"><path fill="#FFF" d="M228.043 194.872a1.163 1.163 0 1 0-1.645 0 1.158 1.158 0 0 0 1.645 0z" id="CIRCLE_29_"/></g><path fill="#EDAA00" d="M240.242 187.647h9.709V209h-9.709z"/><path fill="#007481" d="M245.531 181.821l-.002.912h.915v.868h-.915v.912h-.863v-.912h-.916v-.868h.916l-.001-.912z"/><path fill="#E75300" d="M249.951 197.314v-9.707h-9.707v9.707h9.707z"/><path fill="#FFF" d="M245.114 195.903l3.43-3.432-.006-.008-3.423-3.423-.01-.012-3.431 3.432.008.011z"/><g id="INSERT_28_"><path fill="#007481" d="M243.933 192.46c0 .646.521 1.164 1.164 1.164a1.164 1.164 0 1 0-1.164-1.164z" id="CIRCLE_28_"/></g><path fill="#EDAA00" d="M259.704 187.647h9.71V209h-9.71z"/><path fill="#E75300" d="M263.927 182.538a.892.892 0 1 0 1.261 0 .887.887 0 0 0-1.261 0z"/><g id="XMLID_2_"><path fill="#007481" d="M269.411 197.316v-9.707h-9.707v9.707h9.707z"/><path fill="#EDAA00" d="M262.143 194.899h4.854v-4.864h-4.854v.013z"/></g><g fill="#00969B"><path d="M109.933 57.915c0-7.7-6.493-13.97-14.484-13.97-.733 0-1.487.053-2.223.157-6.21.884-10.364 5.349-12.692 8.774-2.328-3.424-6.484-7.89-12.687-8.774a16.233 16.233 0 0 0-2.227-.157c-7.988 0-14.488 6.271-14.488 13.97 0 7.704 6.5 13.972 14.484 13.972.738 0 1.489-.056 2.232-.157 6.203-.89 10.359-5.353 12.687-8.785 2.328 3.432 6.482 7.895 12.692 8.785.735.101 1.489.157 2.232.157 7.981.001 14.474-6.268 14.474-13.972zm-42.786 8.911c-.514.074-1.025.117-1.532.117-5.257 0-9.532-4.052-9.532-9.027 0-4.972 4.275-9.023 9.536-9.023.505 0 1.017.04 1.528.112 5.851.837 9.428 6.603 10.642 8.911-1.218 2.314-4.797 8.078-10.642 8.91zm16.141-8.911c1.209-2.312 4.791-8.074 10.633-8.911a11.198 11.198 0 0 1 1.527-.112c5.259 0 9.532 4.05 9.532 9.023 0 4.975-4.273 9.027-9.523 9.027-.505 0-1.025-.042-1.536-.117-5.844-.831-9.424-6.597-10.633-8.91z"/><path d="M61.627 56.554h8.7v2.799h-8.7zm34.788 2.799h2.945v-2.799h-2.945v-2.951H93.61v2.951h-2.95v2.799h2.95v2.951h2.805zm14.558-14.856a2.081 2.081 0 0 0-.437-.65 2.079 2.079 0 0 0-.635-.433 1.947 1.947 0 0 0-.792-.16c-.282 0-.55.052-.794.16a2.076 2.076 0 0 0-.637.433 2.076 2.076 0 0 0-.435 2.269c.108.261.256.476.435.66.179.184.393.328.637.433.244.11.511.164.794.164.282 0 .545-.054.792-.164.242-.105.457-.249.635-.433a2.068 2.068 0 0 0 .596-1.465c0-.296-.053-.565-.159-.814zm-.449 1.44a1.487 1.487 0 0 1-.336.502c-.146.146-.307.26-.489.348a1.452 1.452 0 0 1-1.191 0 1.558 1.558 0 0 1-.491-.348 1.652 1.652 0 0 1-.328-.502 1.686 1.686 0 0 1 0-1.256c.081-.202.191-.368.328-.514a1.514 1.514 0 0 1 1.092-.46c.215 0 .41.042.59.121a1.593 1.593 0 0 1 .825.853c.083.195.126.406.126.63 0 .226-.042.433-.126.626z"/><path d="M109.549 45.51a.607.607 0 0 0 .263-.24.614.614 0 0 0 .096-.339.705.705 0 0 0-.205-.502c-.139-.144-.37-.211-.697-.211-.126 0-.235 0-.332.009a5.783 5.783 0 0 0-.282.022v2.028h.511v-.668h.206l.357.668h.577l-.494-.767zm-.509-.273a.53.53 0 0 1-.153-.016v-.545a.642.642 0 0 1 .166-.02c.218 0 .327.101.327.294s-.111.287-.34.287z"/></g><path fill="#00979D" d="M117.31 45.84h127.559v24.468H117.31z"/><path d="M133.63 51.039v1.51h-7.77v4.576h7.036v1.489h-7.036v4.922h7.77v1.532h-9.519v-14.03h9.519zm2.975 0h4.663c4.943 0 6.367 3.259 6.367 6.907 0 3.799-1.188 7.123-6.476 7.123h-4.554v-14.03zm1.748 1.51v10.987h3c3.886 0 4.425-2.461 4.425-5.482 0-2.849-.842-5.505-4.511-5.505h-2.914zm19.703-1.51h1.706v8.785c0 3.237-1.23 5.46-5.159 5.46-3.863 0-5.094-1.899-5.094-5.288v-8.957h1.727v8.763c0 3.044.972 4.015 3.432 4.015 2.568 0 3.388-1.209 3.388-4.167v-8.611zm14.803 13.382c-1.1.583-2.569.863-4.08.863-3.863 0-6.475-2.093-6.475-7.144 0-4.706 2.698-7.296 6.669-7.296 1.425 0 2.893.345 3.691.842l-.583 1.619c-.798-.649-2.05-.951-3.152-.951-3.194 0-4.769 2.072-4.769 5.742 0 3.799 1.576 5.698 4.748 5.698 1.402 0 2.849-.41 3.518-.842l.433 1.469zm1.831.647l4.899-14.03h1.857l4.92 14.03h-1.834l-1.251-3.712h-5.633l-1.209 3.712h-1.749zm5.763-12.195l-2.332 7.036h4.684l-2.352-7.036zm18.753-.324h-4.835v12.519h-1.748V52.549h-4.857v-1.51h11.44v1.51zm2.457 10.987h3.884V52.571h-3.884v-1.532h9.67v1.532h-4.037v10.965h4.037v1.532h-9.67v-1.532zm23.587-5.462c0 4.167-2.007 7.209-5.935 7.209-4.144 0-5.807-2.763-5.807-7.187 0-4.339 1.878-7.252 5.893-7.252 4.101 0 5.849 2.525 5.849 7.23zm-1.855 0c0-3.669-.885-5.72-3.993-5.72-3.087 0-4.037 1.943-4.037 5.742 0 3.561.777 5.677 3.95 5.677 3.043 0 4.08-2.288 4.08-5.699zm5.392 6.994h-1.662v-14.03h1.921l6.842 11.246V51.039h1.641v14.03h-1.792l-6.949-11.461v11.46z" fill="#FFF"/></svg>