<svg version="1.1" id="Layer_1" xmlns="http://www.w3.org/2000/svg" x="0" y="0" width="111" height="111" xml:space="preserve"><circle fill="#FFF" cx="55.371" cy="55.752" r="55.039"/><path fill="#CFCFCF" d="M55.371 92.726c-20.388 0-36.975-16.586-36.975-36.974s16.587-36.974 36.975-36.974 36.974 16.586 36.974 36.974-16.586 36.974-36.974 36.974zm0-72.948c-19.837 0-35.975 16.138-35.975 35.974 0 19.836 16.138 35.974 35.975 35.974 19.836 0 35.974-16.138 35.974-35.974 0-19.836-16.138-35.974-35.974-35.974z"/><path fill="#CFCFCF" d="M83.465 80.808h-1.693c0-12.569-3.053-20.94-17.951-20.94H46.128c-14.898 0-17.951 7.884-17.951 19.721h-1.693v-.374c.055-10.978 2.573-21.041 19.645-21.041H63.82c17.265-.001 19.645 10.878 19.645 22.634z"/><path fill="#CFCFCF" d="M55.095 58.687c-7.581 0-13.749-6.479-13.749-14.441s6.168-14.441 13.749-14.441 13.748 6.479 13.748 14.441-6.167 14.441-13.748 14.441zm0-27.188c-6.647 0-12.056 5.718-12.056 12.747s5.408 12.747 12.056 12.747c6.646 0 12.055-5.718 12.055-12.747s-5.409-12.747-12.055-12.747z"/><path fill="#CFCFCF" d="M55.371 93.072c-20.579 0-37.321-16.741-37.321-37.32s16.742-37.321 37.321-37.321 37.32 16.742 37.32 37.321-16.741 37.32-37.32 37.32zm0-72.947c-19.646 0-35.628 15.982-35.628 35.627 0 19.645 15.982 35.627 35.628 35.627 19.645 0 35.627-15.982 35.627-35.627 0-19.645-15.982-35.627-35.627-35.627z"/></svg>