<svg version="1.1" id="Layer_1" xmlns="http://www.w3.org/2000/svg" x="0" y="0" viewBox="0 0 297.5 211.149" xml:space="preserve"><path fill="#BCC6C6" d="M2.446 37.172h292.478v172.293H2.446z"/><path fill="#F5F7F7" d="M42.38 38.042l79.919-.027v169.81H42.38z"/><path fill="#C8C8C8" d="M292.186 1H5.135a2.739 2.739 0 0 0-2.739 2.739v12.145h292.53V3.739A2.74 2.74 0 0 0 292.186 1z"/><path fill="#E6E6E5" d="M2.396 15.884h292.53v22.144H2.396z"/><path fill="#C8C8C8" d="M22.22 29.845c.222-.217 2.395-2.498 2.395-2.498a.584.584 0 0 0 0-.838s-2.172-2.281-2.395-2.497a.632.632 0 0 0-.859 0c-.237.231-.256.554 0 .838l1.993 2.079-1.993 2.078c-.256.284-.237.607 0 .838a.633.633 0 0 0 .859 0zm-9.612-5.833c-.222.217-2.394 2.498-2.394 2.498a.586.586 0 0 0 0 .838s2.172 2.281 2.394 2.498c.222.216.622.231.859 0s.256-.554 0-.838l-1.993-2.078 1.993-2.079c.256-.284.237-.607 0-.838a.63.63 0 0 0-.859-.001z"/><path fill="#D7D6D6" d="M48.693 15.928c4.036.002 3.869-10.38 7.233-10.38l38.48.003c4.036-.002 3.869 10.38 7.233 10.38l-52.946-.003z"/><path fill="#E6E6E5" d="M2.95 15.996c4.036.002 3.869-10.38 7.233-10.38l38.479.003c4.036-.002 3.869 10.38 7.233 10.38L2.95 15.996z"/><path fill="#C8C8C8" d="M38.4 26.664h-1.121l-.008-.074a3.091 3.091 0 0 0-3.082-2.771 3.109 3.109 0 0 0-3.101 3.109 3.109 3.109 0 0 0 3.101 3.11c.7 0 1.36-.228 1.91-.66l.164-.129-.759-.812-.137.101a1.974 1.974 0 0 1-1.177.387 1.996 1.996 0 0 1-1.99-1.998c0-1.101.893-1.997 1.99-1.997.964 0 1.787.688 1.957 1.635l.017.097h-1.24l1.738 1.938 1.738-1.936z"/><circle fill="#70B349" cx="266.216" cy="8.342" r="3.075"/><circle fill="#DEAB54" cx="276.625" cy="8.342" r="3.075"/><circle fill="#D5655D" cx="287.083" cy="8.342" r="3.075"/><path fill="#C8C8C8" d="M287.825 26.295h-6.42c-.295 0-.535.284-.535.633s.24.633.535.633h6.42c.295 0 .535-.284.535-.633s-.239-.633-.535-.633zm-6.42-1.267h6.42c.295 0 .535-.284.535-.633 0-.35-.24-.634-.535-.634h-6.42c-.295 0-.535.284-.535.634 0 .349.24.633.535.633zm6.42 3.801h-6.42c-.295 0-.535.283-.535.633s.24.634.535.634h6.42c.295 0 .535-.284.535-.634 0-.35-.239-.633-.535-.633z"/><circle opacity=".9" fill="#D6D5D5" cx="46.61" cy="11.313" r="1.999"/><circle fill="#C7C6C6" cx="92.628" cy="11.313" r="1.999"/><path fill="#FFF" d="M276.06 32.701H43.375a1.803 1.803 0 0 1-1.798-1.798v-7.949c0-.989.809-1.798 1.798-1.798H276.06c.989 0 1.798.809 1.798 1.798v7.949c0 .988-.809 1.798-1.798 1.798z"/><path fill="#E6E6E5" d="M271.868 27.949l2.169 1.692-.905-2.629 2.246-1.583-2.729.066-.781-2.67-.78 2.67-2.729-.066 2.246 1.583-.906 2.629z"/><path fill="#FFF" d="M134.692 69.506H293.28v130.122H134.692z"/><path fill="#EAEFEF" d="M124.23 38.015h169.049v33.167H124.23zM42.115 197.732H293.28v10.047H42.115z"/><path fill="#089FA4" d="M4.372 38.029h38.329V207.78H4.372z"/><path fill="#EAEFEF" d="M121.726 38.015h12.964v169.106h-12.964z"/><path fill="#FFF" d="M169.021 47.543h96.892v14.578h-96.892z"/><path fill="#D7E1E1" d="M261.172 54.128l-2.155 2.582-2.155-2.582z"/><path fill="none" d="M141.442 78.659h73.383v65.337h-73.383z"/><path d="M143.468 84.611l-1.487-4.166h.957l1.13 3.453 1.122-3.453h.939l-1.531 4.166h-1.13zm5.797-4.27c1.331 0 2.14.792 2.14 2.166 0 1.218-.792 2.191-2.131 2.191-1.296 0-2.14-.774-2.14-2.191 0-1.287.861-2.166 2.131-2.166zm-.017 3.636c.878 0 1.2-.539 1.2-1.47 0-.844-.322-1.444-1.2-1.444-.817 0-1.157.583-1.157 1.444 0 .939.365 1.47 1.157 1.47zm3.3-.096h1.462v-2.705h-1.462v-.73h2.366v3.436h1.496v.73h-3.862v-.731zm1.923-5.375c.304 0 .548.243.548.548 0 .296-.244.53-.548.53a.527.527 0 0 1-.531-.53.536.536 0 0 1 .531-.548zm7.179 6.105h-.835l-.018-.548c-.356.356-.922.635-1.435.635-1.104 0-1.714-.826-1.714-2.096 0-1.4.888-2.262 2.184-2.262.304 0 .617.044.913.104v-1.792h.904v5.959zm-.904-3.322c-.235-.148-.496-.218-.87-.218-.791 0-1.27.522-1.27 1.444 0 .956.408 1.383 1.026 1.383.348 0 .8-.2 1.113-.505v-2.104z" fill="#1A989C"/><path d="M169.764 81.541c0-.809.826-1.2 1.757-1.2.591 0 1.226.113 1.6.33l-.261.783c-.226-.209-.757-.417-1.27-.417-.4 0-.904.087-.904.461 0 .73 2.521.382 2.521 1.922 0 1-1.061 1.278-1.948 1.278-.635 0-1.226-.131-1.574-.348l.235-.792c.305.244.817.436 1.348.436.479 0 1.001-.131 1.001-.531 0-.922-2.505-.461-2.505-1.922zm8.553 1.992l.234.722a3.276 3.276 0 0 1-1.688.443c-1.147 0-2.113-.652-2.113-2.191 0-1.409.939-2.166 1.992-2.166 1.069 0 1.86.592 1.86 2.088 0 .043 0 .217-.008.27h-2.914c.078.913.652 1.278 1.392 1.278.445 0 .975-.227 1.245-.444zm-.627-1.426c.018-.696-.374-1.104-.931-1.104-.626 0-.991.321-1.069 1.104h2zm3.98 1.017c0 .661.33.835.809.835.339 0 .73-.156 1-.33l.165.739c-.399.217-.913.33-1.374.33-.8 0-1.505-.33-1.505-1.427v-2.087h-.974v-.634l.991-.062.113-1.104h.774v1.113h1.766v.688h-1.766v1.939zm6.345-2.679h.904v4.166h-.817l-.035-.548c-.452.452-1 .644-1.461.644-.695 0-1.479-.27-1.479-1.461v-2.801h.904v2.531c0 .756.331.965.81.965.391 0 .835-.243 1.174-.539v-2.957zm3.256 4.149v1.931h-.904v-6.079h.835l.018.521c.356-.348.896-.626 1.408-.626 1.104 0 1.74.817 1.74 2.096 0 1.4-.922 2.262-2.218 2.262a4.984 4.984 0 0 1-.879-.105zm0-.835c.234.148.539.2.835.2.791 0 1.305-.513 1.305-1.436 0-.956-.435-1.391-1.053-1.391-.348 0-.773.208-1.087.513v2.114z" fill="#7B9445"/><path d="M199.581 78.35l.496.504c-.957.809-1.705 1.87-1.705 3.453 0 1.652.739 2.661 1.714 3.505l-.452.487c-1.349-.957-2.122-2.349-2.122-3.949 0-1.679.8-3.053 2.069-4zm3.597 7.949l-.452-.487c.974-.844 1.713-1.853 1.713-3.505 0-1.583-.748-2.645-1.705-3.453l.496-.504c1.27.947 2.07 2.33 2.07 4 0 1.609-.775 2.992-2.122 3.949zm5.544-1.505v-1.835c0-.296-.174-.418-.539-.436-.026-.008-.183-.008-.218-.008v-.583c.035 0 .183 0 .209-.009.348-.018.548-.14.548-.435v-1.836c0-.739.209-1.392 1.409-1.392h.365v.557h-.322c-.644 0-.739.262-.739.827v1.365c0 .626-.104 1.061-.687 1.209.548.104.687.583.687 1.191v1.4c0 .557.062.809.705.809h.356v.565h-.392c-1.2.003-1.382-.545-1.382-1.389zm-60.718 14.91v-.565h.348c.652 0 .713-.252.713-.809v-1.4c0-.608.13-1.087.687-1.191-.583-.148-.687-.583-.687-1.209v-1.365c0-.565-.096-.827-.748-.827h-.313v-.558h.356c1.2 0 1.418.652 1.418 1.392v1.836c0 .312.208.426.583.443h.174v.583h-.183c-.382.017-.574.13-.574.443v1.835c0 .844-.191 1.392-1.392 1.392h-.382z" fill="#2C353A"/><path d="M143.468 125.166L141.981 121h.957l1.13 3.453L145.19 121h.939l-1.531 4.166h-1.13zm5.797-4.271c1.331 0 2.14.792 2.14 2.166 0 1.218-.792 2.191-2.131 2.191-1.296 0-2.14-.774-2.14-2.191 0-1.287.861-2.166 2.131-2.166zm-.017 3.636c.878 0 1.2-.539 1.2-1.47 0-.844-.322-1.444-1.2-1.444-.817 0-1.157.583-1.157 1.444 0 .94.365 1.47 1.157 1.47zm3.3-.096h1.462v-2.705h-1.462V121h2.366v3.436h1.496v.73h-3.862v-.731zm1.923-5.375c.304 0 .548.243.548.548 0 .296-.244.53-.548.53a.527.527 0 0 1-.531-.53.536.536 0 0 1 .531-.548zm7.179 6.106h-.835l-.018-.548c-.356.356-.922.635-1.435.635-1.104 0-1.714-.826-1.714-2.096 0-1.4.888-2.262 2.184-2.262.304 0 .617.044.913.104v-1.792h.904v5.959zm-.904-3.323c-.235-.148-.496-.218-.87-.218-.791 0-1.27.522-1.27 1.444 0 .956.408 1.383 1.026 1.383.348 0 .8-.2 1.113-.505v-2.104z" fill="#1A989C"/><path d="M169.468 124.435h1.505v-4.506h-1.436v-.722h2.34v5.228h1.452v.73h-3.861v-.73zm7.171-3.54c1.33 0 2.14.792 2.14 2.166 0 1.218-.792 2.191-2.131 2.191-1.296 0-2.14-.774-2.14-2.191 0-1.287.86-2.166 2.131-2.166zm-.018 3.636c.878 0 1.2-.539 1.2-1.47 0-.844-.322-1.444-1.2-1.444-.817 0-1.157.583-1.157 1.444 0 .94.365 1.47 1.157 1.47zm5.232-3.636c1.33 0 2.14.792 2.14 2.166 0 1.218-.792 2.191-2.131 2.191-1.296 0-2.14-.774-2.14-2.191 0-1.287.86-2.166 2.131-2.166zm-.018 3.636c.878 0 1.2-.539 1.2-1.47 0-.844-.322-1.444-1.2-1.444-.817 0-1.157.583-1.157 1.444 0 .94.365 1.47 1.157 1.47zm4.223.617v1.931h-.904V121h.835l.018.521c.356-.348.896-.626 1.408-.626 1.104 0 1.74.817 1.74 2.096 0 1.4-.922 2.262-2.218 2.262-.253 0-.566-.043-.879-.105zm0-.835c.234.148.539.2.835.2.791 0 1.305-.513 1.305-1.436 0-.956-.435-1.391-1.053-1.391-.348 0-.773.208-1.087.513v2.114z" fill="#7B9445"/><path d="M194.106 118.904l.495.504c-.956.809-1.704 1.87-1.704 3.453 0 1.652.739 2.661 1.713 3.505l-.452.487c-1.348-.957-2.122-2.349-2.122-3.949 0-1.679.8-3.053 2.07-4zm3.596 7.949l-.452-.487c.974-.844 1.714-1.853 1.714-3.505 0-1.583-.748-2.645-1.705-3.453l.496-.504c1.27.947 2.069 2.33 2.069 4 0 1.609-.773 2.992-2.122 3.949zm5.545-1.505v-1.835c0-.296-.175-.418-.54-.436-.025-.008-.183-.008-.217-.008v-.583c.034 0 .183 0 .208-.009.349-.018.549-.14.549-.435v-1.836c0-.739.208-1.392 1.408-1.392h.365v.557h-.321c-.644 0-.739.262-.739.827v1.365c0 .626-.104 1.061-.688 1.209.548.104.688.583.688 1.191v1.4c0 .557.061.809.704.809h.356v.565h-.391c-1.199.003-1.382-.545-1.382-1.389zm-55.243 14.909v-.565h.348c.652 0 .713-.252.713-.809v-1.4c0-.608.13-1.087.687-1.191-.583-.148-.687-.583-.687-1.209v-1.365c0-.565-.096-.827-.748-.827h-.313v-.557h.356c1.2 0 1.418.652 1.418 1.392v1.836c0 .312.208.426.583.443h.174v.583h-.183c-.382.017-.574.13-.574.443v1.835c0 .844-.191 1.392-1.392 1.392h-.382z" fill="#2C353A"/><circle fill="#FFF" cx="9.44" cy="72.248" r="1.656"/><path fill="#FFF" d="M14.5 71.149h11v1h-11zm0 10h11v1h-11zm0 10h11v1h-11zm0 8h11v1h-11zm0 10h11v1h-11zm0 9h11v1h-11z"/><circle fill="#FFF" cx="9.44" cy="81.671" r="1.656"/><circle fill="#FFF" cx="9.44" cy="91.094" r="1.656"/><circle fill="#FFF" cx="9.44" cy="100.517" r="1.656"/><circle fill="#FFF" cx="9.44" cy="109.941" r="1.656"/><circle fill="#FFF" cx="9.44" cy="119.364" r="1.656"/><path fill="#065D60" d="M9.46 54.81l-.599-.831 4.365-3.242-4.38-3.089.599-.83 4.964 3.535v.8L9.46 54.81z"/><path fill="#D9E4E4" d="M50.5 71.149h27v1h-27zm0 23h27v1h-27zm0 6h27v1h-27zm0-21h34v1h-34zm0 7h34v1h-34zm0 30h34v1h-34zm0 7h34v1h-34zm0-15h34v1h-34zm0 23h27v1h-27zm0 23h27v1h-27zm0 6h27v1h-27zm0-21h34v1h-34zm0 7h34v1h-34zm0 30h34v1h-34zm0 7h34v1h-34zm0-15h34v1h-34z"/><path fill="#BAE3E2" d="M52.141 47.633h56.318v13.375H52.141z"/><path fill="#D9E4E4" d="M150.3 47.543h13.097v14.578H150.3zm-15.406 0h13.097v14.578h-13.097zm134.527 0h13.097v14.578h-13.097z"/><path fill="#92A2A3" d="M160.813 54.191l-2.73-2.684-.597.596 2.005 1.96h-7.082v.852h7.082l-2.005 1.96.597.596 2.73-2.684c.17-.127.17-.425 0-.596z"/><path fill="#BAC5C4" d="M269.421 61.029h13.097v1.091h-13.097zm-134.527-.021h13.097v1.091h-13.097zm15.406 0h13.097v1.091H150.3z"/><path fill="#92A2A3" d="M145.364 50.137l.609.609-5.437 5.429a.43.43 0 0 1-.61 0l-2.74-2.735.609-.609 2.435 2.431"/><g fill="#92A2A3"><circle cx="272.963" cy="54.832" r=".807"/><circle cx="275.97" cy="54.832" r=".807"/><circle cx="278.977" cy="54.832" r=".807"/></g></svg>